<svg width="123" height="25" viewBox="0 0 123 25" fill="none" xmlns="http://www.w3.org/2000/svg">
<path d="M3.79688 1.125V23.875H0V1.125H3.79688ZM15.1562 1.125L7.57812 12.1094L3.03125 17.6875L2.3125 13.7188L5.45312 9.0625L10.5625 1.125H15.1562ZM10.9844 23.875L5.21875 13.125L7.82812 10.4219L15.4688 23.875H10.9844Z" fill="url(#paint0_linear_45_6)"/>
<path d="M32.5312 10.6406V14.5156C32.5312 16.1198 32.3438 17.526 31.9688 18.7344C31.6042 19.9427 31.0729 20.9531 30.375 21.7656C29.6875 22.5677 28.8542 23.1719 27.875 23.5781C26.9062 23.9844 25.8229 24.1875 24.625 24.1875C23.4375 24.1875 22.3542 23.9844 21.375 23.5781C20.4062 23.1719 19.5677 22.5677 18.8594 21.7656C18.1615 20.9531 17.6198 19.9427 17.2344 18.7344C16.8594 17.526 16.6719 16.1198 16.6719 14.5156V10.6406C16.6719 9.01562 16.8594 7.59375 17.2344 6.375C17.6094 5.14583 18.1458 4.11979 18.8438 3.29688C19.5521 2.47396 20.3906 1.85417 21.3594 1.4375C22.3385 1.02083 23.4167 0.8125 24.5938 0.8125C25.7917 0.8125 26.875 1.02083 27.8438 1.4375C28.8229 1.85417 29.6615 2.47396 30.3594 3.29688C31.0573 4.11979 31.5938 5.14583 31.9688 6.375C32.3438 7.59375 32.5312 9.01562 32.5312 10.6406ZM28.7656 14.5156V10.6094C28.7656 9.45312 28.6719 8.46354 28.4844 7.64062C28.3073 6.80729 28.0417 6.13021 27.6875 5.60938C27.3333 5.07812 26.8958 4.6875 26.375 4.4375C25.8646 4.17708 25.2708 4.04688 24.5938 4.04688C23.9375 4.04688 23.349 4.17708 22.8281 4.4375C22.3177 4.6875 21.8802 5.07812 21.5156 5.60938C21.1615 6.13021 20.8906 6.80729 20.7031 7.64062C20.526 8.46354 20.4375 9.45312 20.4375 10.6094V14.5156C20.4375 15.651 20.5312 16.6302 20.7188 17.4531C20.9062 18.2656 21.1771 18.9323 21.5312 19.4531C21.8958 19.9635 22.3385 20.3438 22.8594 20.5938C23.3802 20.8438 23.9688 20.9688 24.625 20.9688C25.2917 20.9688 25.8854 20.8438 26.4062 20.5938C26.9271 20.3438 27.3594 19.9635 27.7031 19.4531C28.0573 18.9323 28.3229 18.2656 28.5 17.4531C28.6771 16.6302 28.7656 15.651 28.7656 14.5156Z" fill="url(#paint1_linear_45_6)"/>
<path d="M48.625 20.7031V23.875H39.1719V20.7031H48.625ZM40.1719 1.125V23.875H36.375V1.125H40.1719Z" fill="url(#paint2_linear_45_6)"/>
<path d="M66.0625 10.6406V14.5156C66.0625 16.1198 65.875 17.526 65.5 18.7344C65.1354 19.9427 64.6042 20.9531 63.9062 21.7656C63.2188 22.5677 62.3854 23.1719 61.4062 23.5781C60.4375 23.9844 59.3542 24.1875 58.1562 24.1875C56.9688 24.1875 55.8854 23.9844 54.9062 23.5781C53.9375 23.1719 53.099 22.5677 52.3906 21.7656C51.6927 20.9531 51.151 19.9427 50.7656 18.7344C50.3906 17.526 50.2031 16.1198 50.2031 14.5156V10.6406C50.2031 9.01562 50.3906 7.59375 50.7656 6.375C51.1406 5.14583 51.6771 4.11979 52.375 3.29688C53.0833 2.47396 53.9219 1.85417 54.8906 1.4375C55.8698 1.02083 56.9479 0.8125 58.125 0.8125C59.3229 0.8125 60.4062 1.02083 61.375 1.4375C62.3542 1.85417 63.1927 2.47396 63.8906 3.29688C64.5885 4.11979 65.125 5.14583 65.5 6.375C65.875 7.59375 66.0625 9.01562 66.0625 10.6406ZM62.2969 14.5156V10.6094C62.2969 9.45312 62.2031 8.46354 62.0156 7.64062C61.8385 6.80729 61.5729 6.13021 61.2188 5.60938C60.8646 5.07812 60.4271 4.6875 59.9062 4.4375C59.3958 4.17708 58.8021 4.04688 58.125 4.04688C57.4688 4.04688 56.8802 4.17708 56.3594 4.4375C55.849 4.6875 55.4115 5.07812 55.0469 5.60938C54.6927 6.13021 54.4219 6.80729 54.2344 7.64062C54.0573 8.46354 53.9688 9.45312 53.9688 10.6094V14.5156C53.9688 15.651 54.0625 16.6302 54.25 17.4531C54.4375 18.2656 54.7083 18.9323 55.0625 19.4531C55.4271 19.9635 55.8698 20.3438 56.3906 20.5938C56.9115 20.8438 57.5 20.9688 58.1562 20.9688C58.8229 20.9688 59.4167 20.8438 59.9375 20.5938C60.4583 20.3438 60.8906 19.9635 61.2344 19.4531C61.5885 18.9323 61.8542 18.2656 62.0312 17.4531C62.2083 16.6302 62.2969 15.651 62.2969 14.5156Z" fill="url(#paint3_linear_45_6)"/>
<path d="M77.2188 13.625H72.5781L72.5625 10.7188H76.6719C77.3073 10.7188 77.849 10.5938 78.2969 10.3438C78.7448 10.0938 79.0833 9.72917 79.3125 9.25C79.5521 8.77083 79.6719 8.19271 79.6719 7.51562C79.6719 6.76562 79.5625 6.15625 79.3438 5.6875C79.1354 5.20833 78.8125 4.85938 78.375 4.64062C77.9375 4.42188 77.375 4.3125 76.6875 4.3125H73.7031V23.875H69.9062V1.125H76.6875C77.75 1.125 78.6979 1.24479 79.5312 1.48438C80.3646 1.72396 81.0729 2.09896 81.6562 2.60938C82.25 3.11979 82.6979 3.76042 83 4.53125C83.3125 5.30208 83.4688 6.21875 83.4688 7.28125C83.4688 8.20833 83.2708 9.0625 82.875 9.84375C82.4792 10.6146 81.8906 11.25 81.1094 11.75C80.3385 12.2396 79.3802 12.5312 78.2344 12.625L77.2188 13.625ZM77.0781 23.875H71.3281L73.0781 20.7031H77.0781C77.7552 20.7031 78.3125 20.5573 78.75 20.2656C79.1875 19.974 79.5156 19.5677 79.7344 19.0469C79.9531 18.526 80.0625 17.9167 80.0625 17.2188C80.0625 16.4896 79.9688 15.8542 79.7812 15.3125C79.5938 14.7708 79.2917 14.3542 78.875 14.0625C78.4583 13.7708 77.9062 13.625 77.2188 13.625H73.3906L73.4219 10.7188H78.3125L79.1875 11.8281C80.2812 11.849 81.1719 12.1198 81.8594 12.6406C82.5469 13.151 83.0521 13.8125 83.375 14.625C83.6979 15.4375 83.8594 16.3073 83.8594 17.2344C83.8594 18.6823 83.5885 19.901 83.0469 20.8906C82.5156 21.8698 81.7448 22.6146 80.7344 23.125C79.724 23.625 78.5052 23.875 77.0781 23.875Z" fill="url(#paint4_linear_45_6)"/>
<path d="M103.094 10.6406V14.5156C103.094 16.1198 102.906 17.526 102.531 18.7344C102.167 19.9427 101.635 20.9531 100.938 21.7656C100.25 22.5677 99.4167 23.1719 98.4375 23.5781C97.4688 23.9844 96.3854 24.1875 95.1875 24.1875C94 24.1875 92.9167 23.9844 91.9375 23.5781C90.9688 23.1719 90.1302 22.5677 89.4219 21.7656C88.724 20.9531 88.1823 19.9427 87.7969 18.7344C87.4219 17.526 87.2344 16.1198 87.2344 14.5156V10.6406C87.2344 9.01562 87.4219 7.59375 87.7969 6.375C88.1719 5.14583 88.7083 4.11979 89.4062 3.29688C90.1146 2.47396 90.9531 1.85417 91.9219 1.4375C92.901 1.02083 93.9792 0.8125 95.1562 0.8125C96.3542 0.8125 97.4375 1.02083 98.4062 1.4375C99.3854 1.85417 100.224 2.47396 100.922 3.29688C101.62 4.11979 102.156 5.14583 102.531 6.375C102.906 7.59375 103.094 9.01562 103.094 10.6406ZM99.3281 14.5156V10.6094C99.3281 9.45312 99.2344 8.46354 99.0469 7.64062C98.8698 6.80729 98.6042 6.13021 98.25 5.60938C97.8958 5.07812 97.4583 4.6875 96.9375 4.4375C96.4271 4.17708 95.8333 4.04688 95.1562 4.04688C94.5 4.04688 93.9115 4.17708 93.3906 4.4375C92.8802 4.6875 92.4427 5.07812 92.0781 5.60938C91.724 6.13021 91.4531 6.80729 91.2656 7.64062C91.0885 8.46354 91 9.45312 91 10.6094V14.5156C91 15.651 91.0938 16.6302 91.2812 17.4531C91.4688 18.2656 91.7396 18.9323 92.0938 19.4531C92.4583 19.9635 92.901 20.3438 93.4219 20.5938C93.9427 20.8438 94.5312 20.9688 95.1875 20.9688C95.8542 20.9688 96.4479 20.8438 96.9688 20.5938C97.4896 20.3438 97.9219 19.9635 98.2656 19.4531C98.6198 18.9323 98.8854 18.2656 99.0625 17.4531C99.2396 16.6302 99.3281 15.651 99.3281 14.5156Z" fill="url(#paint5_linear_45_6)"/>
<path d="M110.734 1.125V23.875H106.938V1.125H110.734ZM122.094 1.125L114.516 12.1094L109.969 17.6875L109.25 13.7188L112.391 9.0625L117.5 1.125H122.094ZM117.922 23.875L112.156 13.125L114.766 10.4219L122.406 23.875H117.922Z" fill="url(#paint6_linear_45_6)"/>
<defs>
<linearGradient id="paint0_linear_45_6" x1="-2.125" y1="12.875" x2="122.875" y2="12.875" gradientUnits="userSpaceOnUse">
<stop stop-color="#8B36B2"/>
<stop offset="1" stop-color="#3B3BA5"/>
</linearGradient>
<linearGradient id="paint1_linear_45_6" x1="-2.125" y1="12.875" x2="122.875" y2="12.875" gradientUnits="userSpaceOnUse">
<stop stop-color="#8B36B2"/>
<stop offset="1" stop-color="#3B3BA5"/>
</linearGradient>
<linearGradient id="paint2_linear_45_6" x1="-2.125" y1="12.875" x2="122.875" y2="12.875" gradientUnits="userSpaceOnUse">
<stop stop-color="#8B36B2"/>
<stop offset="1" stop-color="#3B3BA5"/>
</linearGradient>
<linearGradient id="paint3_linear_45_6" x1="-2.125" y1="12.875" x2="122.875" y2="12.875" gradientUnits="userSpaceOnUse">
<stop stop-color="#8B36B2"/>
<stop offset="1" stop-color="#3B3BA5"/>
</linearGradient>
<linearGradient id="paint4_linear_45_6" x1="-2.125" y1="12.875" x2="122.875" y2="12.875" gradientUnits="userSpaceOnUse">
<stop stop-color="#8B36B2"/>
<stop offset="1" stop-color="#3B3BA5"/>
</linearGradient>
<linearGradient id="paint5_linear_45_6" x1="-2.125" y1="12.875" x2="122.875" y2="12.875" gradientUnits="userSpaceOnUse">
<stop stop-color="#8B36B2"/>
<stop offset="1" stop-color="#3B3BA5"/>
</linearGradient>
<linearGradient id="paint6_linear_45_6" x1="-2.125" y1="12.875" x2="122.875" y2="12.875" gradientUnits="userSpaceOnUse">
<stop stop-color="#8B36B2"/>
<stop offset="1" stop-color="#3B3BA5"/>
</linearGradient>
</defs>
</svg>
